<svg width="31" height="31" viewBox="0 0 31 31" fill="none" xmlns="http://www.w3.org/2000/svg">
<path d="M30.412 9.53845L28.4847 7.61117C28.2234 7.34984 27.7661 7.2845 27.4394 7.4805C26.2961 8.19915 24.8588 8.03582 23.9115 7.0885C22.9642 6.14119 22.8008 4.67123 23.5195 3.56058C23.7155 3.23392 23.6828 2.80926 23.3888 2.51527L21.4615 0.587987C20.6776 -0.195996 19.3709 -0.195996 18.5869 0.587987L13.687 5.48788L15.7123 7.51316L14.5364 8.68914L12.5111 6.66385L0.588003 18.5869C-0.195981 19.3709 -0.195981 20.6775 0.588003 21.4615L2.51528 23.3888C2.77661 23.6501 3.20128 23.7155 3.52794 23.5195C4.63858 22.8335 6.07587 23.0295 7.02318 23.9442C7.93783 24.8588 8.13384 26.2961 7.44785 27.4394C7.25186 27.7661 7.28451 28.1907 7.57851 28.452L9.53846 30.412C9.93046 30.804 10.4531 31 10.9758 31C11.4984 31 12.0211 30.804 12.4131 30.412L24.3361 18.4889L22.3109 16.4636L23.4868 15.2877L25.5121 17.3129L30.412 12.4131C31.196 11.6291 31.196 10.3224 30.412 9.53845ZM15.647 9.83245L16.823 8.65646L19.0116 10.8451L17.8356 12.0211L15.647 9.83245ZM21.1349 15.3203L18.9463 13.1317L20.1222 11.9557L22.3109 14.1444L21.1349 15.3203Z" fill="white"/>
</svg>
